M48
;Layer_Color=9474304
;FILE_FORMAT=2:5
INCH,LZ
;TYPE=PLATED
T1F00S00C0.01181
T2F00S00C0.03543
%
T01
X0014Y0031
X0013Y0039
X00232Y00389
X0035Y0036
X0035457Y0046362
X0036Y005
X0032Y0053
X0026539Y0052839
X002Y0051
X0016031Y0052969
X0012Y0051
X0039Y0056
X00421Y0045
X0054953Y0042047
X0054Y0026
X0043Y0025
X0033729Y005867
X00305Y00638
X00228Y00615
X0019Y00592
X0055Y0057
X0054Y0072
X0046Y0078
X00378Y00827
T02
X0019Y001
X0029
X0039
X0049
Y009
X0039
X0029
X0019
M30
