G04*
G04 #@! TF.GenerationSoftware,Altium Limited,Altium Designer,21.6.4 (81)*
G04*
G04 Layer_Color=65535*
%FSLAX25Y25*%
%MOIN*%
G70*
G04*
G04 #@! TF.SameCoordinates,47E44DC7-4B56-48B3-8F63-FDCB66B81885*
G04*
G04*
G04 #@! TF.FilePolarity,Positive*
G04*
G01*
G75*
%ADD10C,0.00492*%
%ADD11C,0.00984*%
%ADD12C,0.00787*%
%ADD13C,0.00591*%
%ADD14C,0.00600*%
D10*
X36626Y69972D02*
G03*
X36626Y69972I-244J0D01*
G01*
D11*
X39299Y17815D02*
G03*
X39299Y17815I-492J0D01*
G01*
X23905Y43919D02*
G03*
X23905Y43919I-492J0D01*
G01*
X51559Y52284D02*
G03*
X51559Y52284I-492J0D01*
G01*
D12*
X13008Y70399D02*
X19592D01*
X13008Y64601D02*
X19592D01*
X13008Y82899D02*
X19592D01*
X13008Y77101D02*
X19592D01*
X31032Y18898D02*
X34969D01*
X31032Y31102D02*
X34969D01*
Y18898D02*
Y31102D01*
X31032Y18898D02*
Y31102D01*
X14000Y85000D02*
Y95000D01*
X54000D01*
X14000Y85000D02*
X54000D01*
Y95000D01*
X14000Y5000D02*
Y15000D01*
X54000D01*
X14000Y5000D02*
X54000D01*
Y15000D01*
X21150Y39884D02*
Y50120D01*
X10913D02*
X21150D01*
X10913Y39884D02*
Y50120D01*
Y39884D02*
X21150D01*
X49886Y59756D02*
X52248D01*
X26708Y80899D02*
X33292D01*
X26708Y75101D02*
X33292D01*
X13008Y70851D02*
X19592D01*
X13008Y76649D02*
X19592D01*
X43488Y50512D02*
X54512D01*
X43488Y39488D02*
Y50512D01*
Y39488D02*
X54512D01*
Y50512D01*
D13*
X30000Y35213D02*
Y36787D01*
X16000Y27213D02*
Y28787D01*
X50213Y23772D02*
X51787D01*
X49213Y70000D02*
X50787D01*
X16000Y21213D02*
Y22787D01*
X48000Y33213D02*
Y34787D01*
X41000Y77213D02*
Y78787D01*
X43213Y60000D02*
X44787D01*
X43213Y70000D02*
X44787D01*
X13797Y56513D02*
Y58087D01*
Y61513D02*
Y63087D01*
X31213Y44772D02*
X32787D01*
D14*
X58701Y68100D02*
X61900D01*
X60834D01*
X58701Y70233D01*
X60300Y68633D01*
X61900Y70233D01*
Y71299D02*
X61367D01*
Y71832D01*
X61900D01*
Y71299D01*
X58701Y77164D02*
X60834D01*
X61900Y78230D01*
X60834Y79296D01*
X58701D01*
X61900Y80363D02*
Y81429D01*
Y80896D01*
X59767D01*
Y80363D01*
X61900Y83029D02*
Y84095D01*
Y83562D01*
X58701D01*
Y83029D01*
X61900Y85694D02*
Y86761D01*
Y86228D01*
X58701D01*
Y85694D01*
X59767Y88893D02*
Y89960D01*
X60300Y90493D01*
X61900D01*
Y88893D01*
X61367Y88360D01*
X60834Y88893D01*
Y90493D01*
X61900Y91559D02*
X59767D01*
Y93159D01*
X60300Y93692D01*
X61900D01*
Y94758D02*
Y95824D01*
Y95291D01*
X59767D01*
Y94758D01*
Y97957D02*
Y99023D01*
X60300Y99556D01*
X61900D01*
Y97957D01*
X61367Y97424D01*
X60834Y97957D01*
Y99556D01*
X18100Y101299D02*
X19166D01*
X18633D01*
Y98100D01*
X18100D01*
X19166D01*
X20766D02*
Y101299D01*
X21832Y100233D01*
X22898Y101299D01*
Y98100D01*
X23965Y101299D02*
Y98633D01*
X24498Y98100D01*
X25564D01*
X26097Y98633D01*
Y101299D01*
X32495Y100766D02*
X31962Y101299D01*
X30896D01*
X30363Y100766D01*
Y100233D01*
X30896Y99699D01*
X31962D01*
X32495Y99166D01*
Y98633D01*
X31962Y98100D01*
X30896D01*
X30363Y98633D01*
X35161Y98100D02*
X34095D01*
X33562Y98633D01*
Y99699D01*
X34095Y100233D01*
X35161D01*
X35694Y99699D01*
Y99166D01*
X33562D01*
X36761Y98100D02*
Y100233D01*
X38360D01*
X38893Y99699D01*
Y98100D01*
X39960D02*
X41559D01*
X42092Y98633D01*
X41559Y99166D01*
X40493D01*
X39960Y99699D01*
X40493Y100233D01*
X42092D01*
X43692Y98100D02*
X44758D01*
X45291Y98633D01*
Y99699D01*
X44758Y100233D01*
X43692D01*
X43159Y99699D01*
Y98633D01*
X43692Y98100D01*
X46358Y100233D02*
Y98100D01*
Y99166D01*
X46891Y99699D01*
X47424Y100233D01*
X47957D01*
X3334Y49599D02*
Y46934D01*
X3867Y46400D01*
X4934D01*
X5467Y46934D01*
Y49599D01*
X8133Y46400D02*
Y49599D01*
X6533Y48000D01*
X8666D01*
X27334Y73599D02*
Y70934D01*
X27867Y70401D01*
X28934D01*
X29467Y70934D01*
Y73599D01*
X30533Y73066D02*
X31066Y73599D01*
X32133D01*
X32666Y73066D01*
Y72533D01*
X32133Y72000D01*
X31600D01*
X32133D01*
X32666Y71467D01*
Y70934D01*
X32133Y70401D01*
X31066D01*
X30533Y70934D01*
X57334Y49599D02*
Y46934D01*
X57867Y46400D01*
X58934D01*
X59467Y46934D01*
Y49599D01*
X62666Y46400D02*
X60533D01*
X62666Y48533D01*
Y49066D01*
X62133Y49599D01*
X61066D01*
X60533Y49066D01*
X37867Y37600D02*
Y34934D01*
X38401Y34400D01*
X39467D01*
X40000Y34934D01*
Y37600D01*
X41066Y34400D02*
X42133D01*
X41600D01*
Y37600D01*
X41066Y37066D01*
X5334Y92400D02*
Y95600D01*
X6934D01*
X7467Y95066D01*
Y94000D01*
X6934Y93467D01*
X5334D01*
X10666Y92400D02*
X8533D01*
X10666Y94533D01*
Y95066D01*
X10133Y95600D01*
X9066D01*
X8533Y95066D01*
X5867Y4400D02*
Y7599D01*
X7467D01*
X8000Y7066D01*
Y6000D01*
X7467Y5467D01*
X5867D01*
X9066Y4400D02*
X10133D01*
X9600D01*
Y7599D01*
X9066Y7066D01*
M02*
