G04*
G04 #@! TF.GenerationSoftware,Altium Limited,Altium Designer,21.6.4 (81)*
G04*
G04 Layer_Color=8388736*
%FSLAX25Y25*%
%MOIN*%
G70*
G04*
G04 #@! TF.SameCoordinates,47E44DC7-4B56-48B3-8F63-FDCB66B81885*
G04*
G04*
G04 #@! TF.FilePolarity,Negative*
G04*
G01*
G75*
%ADD21R,0.02816X0.02648*%
%ADD25R,0.01378X0.01476*%
%ADD26R,0.01476X0.01378*%
%ADD28R,0.01772X0.01299*%
%ADD29R,0.01299X0.01772*%
G04:AMPARAMS|DCode=30|XSize=29.65mil|YSize=27.69mil|CornerRadius=6.46mil|HoleSize=0mil|Usage=FLASHONLY|Rotation=270.000|XOffset=0mil|YOffset=0mil|HoleType=Round|Shape=RoundedRectangle|*
%AMROUNDEDRECTD30*
21,1,0.02965,0.01476,0,0,270.0*
21,1,0.01673,0.02769,0,0,270.0*
1,1,0.01292,-0.00738,-0.00837*
1,1,0.01292,-0.00738,0.00837*
1,1,0.01292,0.00738,0.00837*
1,1,0.01292,0.00738,-0.00837*
%
%ADD30ROUNDEDRECTD30*%
G04:AMPARAMS|DCode=31|XSize=29.65mil|YSize=27.69mil|CornerRadius=6.46mil|HoleSize=0mil|Usage=FLASHONLY|Rotation=180.000|XOffset=0mil|YOffset=0mil|HoleType=Round|Shape=RoundedRectangle|*
%AMROUNDEDRECTD31*
21,1,0.02965,0.01476,0,0,180.0*
21,1,0.01673,0.02769,0,0,180.0*
1,1,0.01292,-0.00837,0.00738*
1,1,0.01292,0.00837,0.00738*
1,1,0.01292,0.00837,-0.00738*
1,1,0.01292,-0.00837,-0.00738*
%
%ADD31ROUNDEDRECTD31*%
G04:AMPARAMS|DCode=32|XSize=33.59mil|YSize=55.24mil|CornerRadius=5.92mil|HoleSize=0mil|Usage=FLASHONLY|Rotation=270.000|XOffset=0mil|YOffset=0mil|HoleType=Round|Shape=RoundedRectangle|*
%AMROUNDEDRECTD32*
21,1,0.03359,0.04341,0,0,270.0*
21,1,0.02175,0.05524,0,0,270.0*
1,1,0.01184,-0.02170,-0.01088*
1,1,0.01184,-0.02170,0.01088*
1,1,0.01184,0.02170,0.01088*
1,1,0.01184,0.02170,-0.01088*
%
%ADD32ROUNDEDRECTD32*%
G04:AMPARAMS|DCode=33|XSize=37.92mil|YSize=34mil|CornerRadius=7.25mil|HoleSize=0mil|Usage=FLASHONLY|Rotation=180.000|XOffset=0mil|YOffset=0mil|HoleType=Round|Shape=RoundedRectangle|*
%AMROUNDEDRECTD33*
21,1,0.03792,0.01950,0,0,180.0*
21,1,0.02342,0.03400,0,0,180.0*
1,1,0.01450,-0.01171,0.00975*
1,1,0.01450,0.01171,0.00975*
1,1,0.01450,0.01171,-0.00975*
1,1,0.01450,-0.01171,-0.00975*
%
%ADD33ROUNDEDRECTD33*%
%ADD34R,0.01575X0.01772*%
%ADD35R,0.01772X0.01575*%
%ADD36C,0.06706*%
%ADD37R,0.06706X0.06706*%
D21*
X18184Y67500D02*
D03*
X14416D02*
D03*
X18184Y80000D02*
D03*
X14416D02*
D03*
X31884Y78000D02*
D03*
X28116D02*
D03*
X14416Y73750D02*
D03*
X18184D02*
D03*
D25*
X18000Y42000D02*
D03*
X16031D02*
D03*
X14063D02*
D03*
Y48004D02*
D03*
X16031D02*
D03*
X18000D02*
D03*
D26*
X13030Y44018D02*
D03*
Y45986D02*
D03*
X19033D02*
D03*
Y44018D02*
D03*
D28*
X26539Y67850D02*
D03*
Y66157D02*
D03*
Y64465D02*
D03*
Y62772D02*
D03*
Y61079D02*
D03*
Y59386D02*
D03*
Y57693D02*
D03*
Y56000D02*
D03*
X36382D02*
D03*
Y57693D02*
D03*
Y59386D02*
D03*
Y61079D02*
D03*
Y62772D02*
D03*
Y64465D02*
D03*
Y66157D02*
D03*
Y67850D02*
D03*
D29*
X28921D02*
D03*
X30614D02*
D03*
X32307D02*
D03*
X28921Y56000D02*
D03*
X30614D02*
D03*
X32307D02*
D03*
X34000D02*
D03*
Y67850D02*
D03*
D30*
X31772Y36000D02*
D03*
X28228D02*
D03*
X14229Y28000D02*
D03*
X17772D02*
D03*
Y22000D02*
D03*
X14229D02*
D03*
X46228Y34000D02*
D03*
X49772D02*
D03*
X42772Y78000D02*
D03*
X39228D02*
D03*
X15569Y57300D02*
D03*
X12025D02*
D03*
X15569Y62300D02*
D03*
X12025D02*
D03*
D31*
X51000Y22000D02*
D03*
Y25543D02*
D03*
X50000Y71772D02*
D03*
Y68228D02*
D03*
X44000Y61772D02*
D03*
Y58228D02*
D03*
Y71772D02*
D03*
Y68228D02*
D03*
X32000Y46543D02*
D03*
Y43000D02*
D03*
D32*
X38807Y21260D02*
D03*
Y25000D02*
D03*
Y28740D02*
D03*
X27193D02*
D03*
Y21260D02*
D03*
D33*
X51067Y57000D02*
D03*
Y62512D02*
D03*
D34*
X46047Y45000D02*
D03*
X51953D02*
D03*
D35*
X47032Y42047D02*
D03*
Y47953D02*
D03*
X50968D02*
D03*
Y42047D02*
D03*
D36*
X49000Y90000D02*
D03*
X39000D02*
D03*
X29000D02*
D03*
X49000Y10000D02*
D03*
X39000D02*
D03*
X29000D02*
D03*
D37*
X19000Y90000D02*
D03*
Y10000D02*
D03*
M02*
